<svg width="86" height="86" viewBox="0 0 86 86" fill="none" xmlns="http://www.w3.org/2000/svg">
<circle cx="43" cy="43" r="43" fill="#E7ECF3"/>
<path fill-rule="evenodd" clip-rule="evenodd" d="M43.5 21C45.3029 21 46.7644 22.4615 46.7644 24.2644V40.2356H62.7356C64.5385 40.2356 66 41.6971 66 43.5C66 45.3029 64.5385 46.7644 62.7356 46.7644H46.7644V62.7356C46.7644 64.5385 45.3029 66 43.5 66C41.6971 66 40.2356 64.5385 40.2356 62.7356V46.7644H24.2644C22.4615 46.7644 21 45.3029 21 43.5C21 41.6971 22.4615 40.2356 24.2644 40.2356H40.2356V24.2644C40.2356 22.4615 41.6971 21 43.5 21Z" fill="white"/>
</svg>
