<svg width="48" height="48" viewBox="0 0 48 48" fill="none" xmlns="http://www.w3.org/2000/svg">
<path d="M43.4608 35.9965L27.4608 7.99654C27.112 7.38095 26.606 6.86892 25.9947 6.51268C25.3833 6.15644 24.6884 5.96875 23.9808 5.96875C23.2733 5.96875 22.5783 6.15644 21.967 6.51268C21.3556 6.86892 20.8497 7.38095 20.5008 7.99654L4.50084 35.9965C4.1482 36.6073 3.96329 37.3003 3.96485 38.0056C3.96642 38.7108 4.15439 39.403 4.50973 40.0122C4.86507 40.6213 5.37513 41.1257 5.98823 41.4742C6.60132 41.8227 7.29565 42.0029 8.00084 41.9965H40.0008C40.7026 41.9958 41.3919 41.8105 41.9994 41.4591C42.6069 41.1077 43.1113 40.6027 43.4619 39.9948C43.8124 39.3868 43.9969 38.6973 43.9967 37.9955C43.9966 37.2937 43.8117 36.6043 43.4608 35.9965Z" stroke="#F44336" stroke-width="3" stroke-linecap="round" stroke-linejoin="round"/>
<path d="M24 18V26" stroke="#F44336" stroke-width="3" stroke-linecap="round" stroke-linejoin="round"/>
<path d="M24 34H24.0192" stroke="#F44336" stroke-width="3" stroke-linecap="round" stroke-linejoin="round"/>
</svg>
