<svg width="38" height="39" viewBox="0 0 38 39" fill="none" xmlns="http://www.w3.org/2000/svg">
<path d="M18.9987 28.6654C24.0613 28.6654 28.1654 24.5613 28.1654 19.4987C28.1654 14.4361 24.0613 10.332 18.9987 10.332C13.9361 10.332 9.83203 14.4361 9.83203 19.4987C9.83203 24.5613 13.9361 28.6654 18.9987 28.6654Z" stroke="#90A0B7" stroke-width="2" stroke-linecap="round" stroke-linejoin="round"/>
<path d="M17 16.8015C17.2 16.4015 17.5 16.0015 17.9 15.8015C18.3141 15.5621 18.7976 15.4712 19.2704 15.544C19.7432 15.6167 20.177 15.8487 20.5 16.2015C20.8 16.6015 21 17.0015 21 17.5015C21 18.8015 19 19.5015 19 19.5015V21" stroke="#90A0B7" stroke-width="2" stroke-linecap="round" stroke-linejoin="round"/>
<path d="M19 23.5H19.01" stroke="#90A0B7" stroke-width="2" stroke-linecap="round" stroke-linejoin="round"/>
</svg>
