<svg width="59" height="58" viewBox="0 0 59 58" fill="none" xmlns="http://www.w3.org/2000/svg">
<path d="M2.5 40.4545V46C2.5 48.2091 4.29086 50 6.5 50H52.5C54.7091 50 56.5 48.2091 56.5 46V39.5M2.5 40.4545V12C2.5 9.79086 4.29086 8 6.5 8H52.5C54.7091 8 56.5 9.79086 56.5 12V39.5M2.5 40.4545L18.6544 20.4054C19.4478 19.4208 20.9444 19.4103 21.7514 20.3838L36.0172 37.5909L43.0793 30.3505C43.8189 29.5922 45.0215 29.5421 45.8216 30.2363L56.5 39.5M48.1207 20.4091C48.1207 23.045 46.0365 25.1818 43.4655 25.1818C40.8945 25.1818 38.8103 23.045 38.8103 20.4091C38.8103 17.7732 40.8945 15.6364 43.4655 15.6364C46.0365 15.6364 48.1207 17.7732 48.1207 20.4091Z" stroke="#C2CFE0" stroke-width="3"/>
</svg>
