<svg width="86" height="86" viewBox="0 0 86 86" fill="none" xmlns="http://www.w3.org/2000/svg">
<path d="M68.9211 6H21.4737C19.2645 6 17.4737 7.79086 17.4737 10V69.6885M68.9211 6H72.541C75.5559 6 78 8.44409 78 11.459V11.459C78 14.4739 75.5559 16.918 72.541 16.918H68.9211M68.9211 6V16.918M17.4737 69.6885H14.1557C11.3083 69.6885 9 71.9968 9 74.8443V74.8443C9 77.6917 11.3083 80 14.1557 80H62.2632M17.4737 69.6885H62.2632C59.7834 73.6843 59.7257 76.0011 62.2632 80M68.9211 16.918V75.7541V75.7541C68.9211 78.099 67.0201 80 64.6752 80H62.2632M25.9474 19.9508H42.8947M25.9474 29.0492H61.0526M25.9474 38.1475H61.0526M25.9474 47.2459H61.0526M27.7632 59.9836L31.3947 56.3443L36.2368 61.1967L39.2632 58.1639" stroke="#C2CFE0" stroke-width="5" stroke-linecap="round" stroke-linejoin="round"/>
</svg>
