<svg width="62" height="63" viewBox="0 0 62 63" fill="none" xmlns="http://www.w3.org/2000/svg">
<path fill-rule="evenodd" clip-rule="evenodd" d="M31.3617 2.66211C33.7013 2.66211 35.5979 4.55868 35.5979 6.89823V27.6237H56.3233C58.6628 27.6237 60.5594 29.5202 60.5594 31.8598C60.5594 34.1993 58.6628 36.0959 56.3233 36.0959H35.5979V56.8213C35.5979 59.1609 33.7013 61.0575 31.3617 61.0575C29.0222 61.0575 27.1256 59.1609 27.1256 56.8213V36.0959H6.40018C4.06064 36.0959 2.16406 34.1993 2.16406 31.8598C2.16406 29.5202 4.06064 27.6237 6.40018 27.6237H27.1256V6.89823C27.1256 4.55868 29.0222 2.66211 31.3617 2.66211Z" fill="#C2CFE0"/>
</svg>
