<svg width="14" height="10" viewBox="0 0 14 10" fill="none" xmlns="http://www.w3.org/2000/svg">
<path d="M4.81818 7.47349L2.06116 4.68797C2.03298 4.65951 1.9946 4.64349 1.95455 4.64349C1.9145 4.64349 1.87611 4.65951 1.84794 4.68797L0.89339 5.65238C0.835537 5.71083 0.835537 5.80497 0.89339 5.86342L4.71157 9.72105C4.73975 9.74952 4.77813 9.76553 4.81818 9.76553C4.85823 9.76553 4.89662 9.74952 4.92479 9.72105L13.1066 1.45469C13.1645 1.39624 13.1645 1.30211 13.1066 1.24366L12.1521 0.279246C12.1239 0.250782 12.0855 0.234766 12.0455 0.234766C12.0054 0.234766 11.967 0.250782 11.9388 0.279246L4.81818 7.47349Z" fill="#109CF1" stroke="#109CF1" stroke-width="0.3" stroke-linejoin="round"/>
</svg>
